<?xml version="1.0" encoding="utf-8"?>
<!-- Generator: Adobe Illustrator 18.0.0, SVG Export Plug-In . SVG Version: 6.00 Build 0)  -->
<!DOCTYPE svg PUBLIC "-//W3C//DTD SVG 1.1//EN" "http://www.w3.org/Graphics/SVG/1.1/DTD/svg11.dtd">
<svg version="1.1" id="Layer_1" xmlns="http://www.w3.org/2000/svg" xmlns:xlink="http://www.w3.org/1999/xlink" x="0px" y="0px"
	 viewBox="0 0 373.6 367" enable-background="new 0 0 373.6 367" xml:space="preserve">
<g>
	<defs>
		<rect id="SVGID_1_" x="-13.2" y="-16.5" width="400" height="400"/>
	</defs>
	<clipPath id="SVGID_2_">
		<use xlink:href="#SVGID_1_"  overflow="visible"/>
	</clipPath>
	<path clip-path="url(#SVGID_2_)" fill="#666766" d="M344.7,190.1c-13.6,11.4-29.6,18.6-44.3,21.7c18.5,9.3,27.9,32.4,27.9,49.7
		c0,22.2-22.2,49.6-45.4,49.6h-66.5v42.7h66.5c35.4,0,90.8-30.1,90.8-92.3C373.6,231,361.7,206.8,344.7,190.1"/>
	<path clip-path="url(#SVGID_2_)" fill="#EF6724" d="M216.4,203.6v-42.7h66.5c23.2,0,45.4-27.4,45.4-49.6
		c0-22.2-15.3-53.8-45.4-53.8h-66.5V13.1h66.5c41.2,0,90.8,35.9,90.8,98.1c0,62.3-55.4,92.3-90.8,92.3H216.4z"/>
	<path clip-path="url(#SVGID_2_)" fill="#666766" d="M206.7,0H100C48,0,0,56.1,0,109.4c0,26.5,11,53.8,28.9,74.6
		C11.3,204.5,0,231,0,256.9C0,310.3,44.6,367,100,367h106.7l0-219.5h0L206.7,0z M57.3,87.1l52.3,12.5c3.5-6.9,10.6-11.5,18.7-11.5
		c11.7,0,21.2,9.7,21.2,21.6c0,11.9-9.5,21.6-21.2,21.6c-8,0-14.9-4.5-18.5-11.1l-52.5,12.3V87.1z M128.3,278.7
		c-8,0-14.9-4.5-18.5-11.1l-52.5,12.3v-45.3l52.3,12.5c3.5-6.9,10.6-11.5,18.7-11.5c11.7,0,21.2,9.7,21.2,21.6
		C149.4,269.1,140,278.7,128.3,278.7"/>
</g>
</svg>
